<svg width="160" height="94" viewBox="0 0 160 94" fill="none" xmlns="http://www.w3.org/2000/svg">
<path d="M78.6573 0.698486C78.7275 0.698667 78.8536 0.731332 79.0391 0.852783C79.219 0.970625 79.4169 1.14662 79.6201 1.36646C80.0265 1.80596 80.4067 2.3689 80.6602 2.8313C86.7135 13.8745 92.6844 24.9615 98.9414 36.5139L98.9444 36.5208L110.199 56.5452C115.642 66.7836 121.085 77.0225 126.527 87.261C127.442 88.9813 128.356 90.7019 129.449 92.7581C120.19 92.7621 111.407 92.8275 102.628 92.6458C102.497 92.643 102.32 92.5923 102.1 92.467C101.882 92.3436 101.65 92.1628 101.416 91.9417C100.947 91.4984 100.514 90.9303 100.228 90.4465C97.9137 86.5381 95.805 82.5132 93.3897 78.0266L93.3887 78.0247C90.426 72.5734 87.594 67.409 84.7442 62.1848L81.8828 56.928C76.3779 46.811 70.984 36.9897 65.544 26.8821C60.8104 18.0886 56.1206 9.56425 51.4326 1.05005C60.5144 0.892229 69.5854 0.684875 78.6573 0.698486Z" fill="url(#paint0_linear_40_145)" stroke="#0C2856"/>
<path d="M81.5521 57.457C85.2781 64.2307 89.0041 71.0043 92.7285 78.0711C89.0286 82.6917 85.427 87.1059 81.5643 91.2859C80.593 92.337 78.7974 93.1631 77.3594 93.1959C69.3758 93.3781 61.3822 93.4038 53.4009 93.1763C51.9242 93.1342 50.0449 92.024 49.113 90.8299C45.5344 86.2442 42.2657 81.4238 38.559 76.246C32.8538 68.2281 27.4711 60.655 22.0884 53.082C22.0884 53.082 22.1102 52.8909 22.5489 52.751C32.4193 52.6035 41.851 52.5959 51.4151 52.8501C56.5424 60.1656 61.5372 67.2193 66.7395 74.5659C71.8413 68.6732 76.6967 63.0651 81.5521 57.457Z" fill="#0C2856"/>
<path d="M110.893 56.1368C106.971 49.7833 103.308 43.2666 99.6195 36.461C109.136 25.1328 118.747 14.1509 128.159 3.00633C130.071 0.743109 132.01 -0.0665457 134.939 0.0042307C143.017 0.199394 151.102 0.0717046 160 0.0717046C152.861 8.38666 146.207 16.1351 139.554 23.885C131.314 33.4853 123.093 43.102 114.813 52.6692C113.747 53.9007 112.379 54.8783 110.893 56.1368Z" fill="#0C2856"/>
<path d="M50.3783 1.78467C55.2206 10.0146 59.8509 18.4393 64.3001 27.2944C59.7373 35.8574 55.3594 43.9747 50.9827 52.0884C41.9168 52.0957 32.8456 52.1043 23.4281 52.1655C32.0969 35.4756 41.1265 18.7264 50.3783 1.78467Z" fill="url(#paint1_linear_40_145)" stroke="#0C2856"/>
<path d="M21.9121 54.1855C27.3039 61.2926 32.4851 68.575 37.7637 76.1084C35.261 81.1346 32.7269 85.9445 29.9902 90.6367C29.7289 91.0848 29.2858 91.6 28.7891 92.002C28.2766 92.4167 27.7927 92.6417 27.4512 92.6484C18.7731 92.8201 10.0924 92.7559 0.839844 92.752C7.94699 79.662 14.8213 67.0058 21.9121 54.1855Z" fill="url(#paint2_linear_40_145)" stroke="#0C2856"/>
<defs>
<linearGradient id="paint0_linear_40_145" x1="130.281" y1="46.7348" x2="50.5948" y2="46.7348" gradientUnits="userSpaceOnUse">
<stop offset="0.75" stop-color="white"/>
<stop offset="1" stop-color="#999999"/>
</linearGradient>
<linearGradient id="paint1_linear_40_145" x1="43.733" y1="0.77002" x2="43.733" y2="52.6703" gradientUnits="userSpaceOnUse">
<stop offset="0.75" stop-color="white"/>
<stop offset="1" stop-color="#999999"/>
</linearGradient>
<linearGradient id="paint2_linear_40_145" x1="19.1721" y1="53.2695" x2="19.1721" y2="93.2667" gradientUnits="userSpaceOnUse">
<stop offset="0.75" stop-color="white"/>
<stop offset="1" stop-color="#999999"/>
</linearGradient>
</defs>
</svg>
