<svg preserveAspectRatio="none" width="100%" height="100%" overflow="visible" style="display: block;" viewBox="0 0 162 94.5064" fill="none" xmlns="http://www.w3.org/2000/svg">
<g id="LOGO-FULL-WHITE">
<path id="Vector" d="M79.6404 0.700969C79.7131 0.701089 79.8418 0.734958 80.03 0.858196C80.2128 0.977901 80.4138 1.1568 80.6199 1.37968C81.0318 1.82528 81.4177 2.39543 81.6746 2.86406C87.8035 14.0453 93.8481 25.2707 100.183 36.9676L100.187 36.9744C104.163 44.0526 107.872 50.6508 111.582 57.2488C117.093 67.6153 122.603 77.9819 128.114 88.3484C129.041 90.0929 129.969 91.8376 131.078 93.9236C121.7 93.9277 112.804 93.9944 103.911 93.8103C103.777 93.8075 103.596 93.7549 103.373 93.6277C103.152 93.5024 102.917 93.3196 102.679 93.0955C102.204 92.6462 101.765 92.0701 101.474 91.5799C99.1316 87.6226 96.9969 83.548 94.5515 79.0057L94.5505 79.0037L88.6834 68.2478C87.72 66.4852 86.7604 64.7287 85.7986 62.9656L82.9011 57.6424C77.3274 47.3989 71.8662 37.4546 66.3582 27.2205C61.5638 18.3142 56.8133 9.68095 52.0652 1.05741C61.2639 0.897602 70.4516 0.687182 79.6404 0.700969Z" fill="url(#paint0_linear_0_4)" stroke="var(--stroke-0, #0C2856)"/>
<path id="Vector_2" d="M23.0919 53.9064C32.9027 53.7621 42.2864 53.7559 51.7931 54.0041C56.9344 61.3383 61.9471 68.4174 67.1652 75.7863L67.5343 76.3068L67.9513 75.8254C72.9522 70.0493 77.7191 64.5425 82.4786 59.0451C86.0849 65.6014 89.6888 72.1621 93.2911 78.9895C89.618 83.5734 86.0437 87.9459 82.2169 92.0871C81.7801 92.5598 81.1387 92.9999 80.4249 93.3254C79.7109 93.6509 78.959 93.8458 78.3146 93.8606C70.2377 94.0449 62.1526 94.0711 54.0822 93.841C53.4423 93.8227 52.6732 93.5678 51.9357 93.1545C51.201 92.7428 50.5444 92.1997 50.1212 91.6574C46.5063 87.0252 43.2103 82.1638 39.4474 76.9074C33.7845 68.9489 28.435 61.4236 23.0919 53.9064Z" fill="var(--fill-0, white)" stroke="var(--stroke-0, black)"/>
<path id="Vector_3" d="M136.614 0.503906C144.468 0.693668 152.336 0.583566 160.909 0.574219C153.949 8.68044 147.433 16.2685 140.919 23.8574C132.575 33.5787 124.252 43.3143 115.87 53C114.926 54.09 113.761 54.9632 112.405 56.0859C108.611 49.912 105.049 43.5815 101.466 36.9775C111.04 25.5886 120.667 14.5861 130.143 3.36621C131.075 2.26287 131.991 1.54 133.007 1.0957C134.025 0.650886 135.18 0.469257 136.614 0.503906Z" fill="var(--fill-0, white)" stroke="var(--stroke-0, black)"/>
<path id="Vector_4" d="M51.0074 1.79447C55.913 10.1315 60.6038 18.6657 65.1109 27.6363C60.49 36.3083 56.056 44.5286 51.6236 52.7456C42.4398 52.7531 33.2507 52.7617 23.7105 52.8238C32.4908 35.9191 41.6365 18.9542 51.0074 1.79447Z" fill="url(#paint1_linear_0_4)" stroke="var(--stroke-0, #0C2856)"/>
<path id="Vector_5" d="M22.1855 54.8504C27.6477 62.0498 32.895 69.4279 38.2422 77.0593C35.7076 82.1497 33.1417 87.0212 30.3701 91.7732C30.1051 92.2276 29.6566 92.7497 29.1533 93.157C28.6342 93.5771 28.1428 93.8063 27.7949 93.8132C19.0049 93.9871 10.2121 93.9217 0.839844 93.9177C8.03936 80.6577 15.0026 67.8371 22.1855 54.8504Z" fill="url(#paint2_linear_0_4)" stroke="var(--stroke-0, #0C2856)"/>
</g>
<defs>
<linearGradient id="paint0_linear_0_4" x1="131.91" y1="47.3191" x2="51.2273" y2="47.3191" gradientUnits="userSpaceOnUse">
<stop offset="0.75" stop-color="white"/>
<stop offset="1" stop-color="#999999"/>
</linearGradient>
<linearGradient id="paint1_linear_0_4" x1="44.2796" y1="0.779822" x2="44.2796" y2="53.3289" gradientUnits="userSpaceOnUse">
<stop offset="0.75" stop-color="white"/>
<stop offset="1" stop-color="#999999"/>
</linearGradient>
<linearGradient id="paint2_linear_0_4" x1="19.4118" y1="53.9353" x2="19.4118" y2="94.4324" gradientUnits="userSpaceOnUse">
<stop offset="0.75" stop-color="white"/>
<stop offset="1" stop-color="#999999"/>
</linearGradient>
</defs>
</svg>
