<svg preserveAspectRatio="none" width="100%" height="100%" overflow="visible" style="display: block;" viewBox="0 0 162 94.5066" fill="none" xmlns="http://www.w3.org/2000/svg">
<g id="LOGO-FULL-WHITE">
<path id="Vector" d="M79.6405 0.700369C79.7132 0.700478 79.8419 0.734363 80.0302 0.857595C80.2129 0.977295 80.414 1.15621 80.62 1.37908C81.032 1.82467 81.4178 2.39484 81.6747 2.86345C87.8037 14.0447 93.8482 25.2702 100.183 36.967L100.187 36.9738C104.163 44.052 107.872 50.6502 111.582 57.2482V57.2472C117.093 67.614 122.604 77.981 128.115 88.3478C129.042 90.0923 129.969 91.8371 131.078 93.923C121.7 93.9271 112.804 93.9938 103.911 93.8097C103.777 93.8069 103.597 93.7543 103.373 93.6271C103.153 93.5018 102.917 93.319 102.68 93.0949C102.204 92.6456 101.765 92.0695 101.475 91.5793C99.1317 87.6219 96.9971 83.5465 94.5517 79.0041L94.5507 79.0031L88.6835 68.2472C87.7202 66.4846 86.7605 64.7281 85.7987 62.965L82.9013 57.6418C77.3275 47.3984 71.8664 37.454 66.3583 27.2199C61.5639 18.3136 56.8135 9.68034 52.0653 1.05681C61.2641 0.897002 70.4517 0.686582 79.6405 0.700369Z" fill="url(#paint0_linear_0_4)" stroke="var(--stroke-0, #0C2856)"/>
<path id="Vector_2" d="M23.092 53.9068C32.9028 53.7624 42.2865 53.7562 51.7932 54.0044C56.9346 61.3388 61.948 68.4175 67.1662 75.7866L67.5344 76.3071L67.9514 75.8257C72.9524 70.0494 77.719 64.542 82.4787 59.0444C86.0851 65.601 89.6888 72.1621 93.2912 78.9898C89.6181 83.5737 86.0438 87.9462 82.217 92.0874C81.7802 92.5601 81.1388 93.0002 80.425 93.3257C79.7112 93.6512 78.96 93.8461 78.3156 93.8609C70.2387 94.0452 62.1536 94.0714 54.0832 93.8413C53.4433 93.8231 52.6735 93.5682 51.9358 93.1548C51.2011 92.7431 50.5445 92.2 50.1213 91.6577C46.5064 87.0256 43.2104 82.1641 39.4475 76.9077C33.7846 68.9492 28.4351 61.4239 23.092 53.9068Z" fill="var(--fill-0, white)" stroke="var(--stroke-0, black)"/>
<path id="Vector_3" d="M136.614 0.503906C144.468 0.693669 152.336 0.583567 160.909 0.574219C153.949 8.68043 147.434 16.2685 140.92 23.8574C132.575 33.5787 124.252 43.3142 115.87 53C114.927 54.0899 113.761 54.9624 112.405 56.085C108.612 49.9112 105.049 43.5812 101.466 36.9775C111.04 25.5886 120.667 14.586 130.143 3.36621C131.075 2.26285 131.991 1.54001 133.007 1.0957C134.025 0.650868 135.18 0.469256 136.614 0.503906Z" fill="var(--fill-0, white)" stroke="var(--stroke-0, black)"/>
<path id="Vector_4" d="M51.0074 1.79462C55.9131 10.1316 60.6038 18.6658 65.111 27.6364C60.49 36.3084 56.056 44.5288 51.6236 52.7458C42.4399 52.7532 33.2507 52.7619 23.7106 52.8239C32.4909 35.9193 41.6365 18.9544 51.0074 1.79462Z" fill="url(#paint1_linear_0_4)" stroke="var(--stroke-0, #0C2856)"/>
<path id="Vector_5" d="M22.1855 54.8507C27.6477 62.0501 32.895 69.4282 38.2422 77.0596C35.7076 82.1499 33.1417 87.0215 30.3701 91.7735C30.1051 92.2279 29.6566 92.75 29.1533 93.1573C28.6341 93.5775 28.1428 93.8066 27.7949 93.8136C19.0049 93.9874 10.2121 93.922 0.839844 93.918C8.03939 80.658 15.0026 67.8374 22.1855 54.8507Z" fill="url(#paint2_linear_0_4)" stroke="var(--stroke-0, #0C2856)"/>
</g>
<defs>
<linearGradient id="paint0_linear_0_4" x1="131.91" y1="47.3184" x2="51.2274" y2="47.3184" gradientUnits="userSpaceOnUse">
<stop offset="0.75" stop-color="white"/>
<stop offset="1" stop-color="#999999"/>
</linearGradient>
<linearGradient id="paint1_linear_0_4" x1="44.2797" y1="0.779976" x2="44.2797" y2="53.3289" gradientUnits="userSpaceOnUse">
<stop offset="0.75" stop-color="white"/>
<stop offset="1" stop-color="#999999"/>
</linearGradient>
<linearGradient id="paint2_linear_0_4" x1="19.4118" y1="53.9356" x2="19.4118" y2="94.4326" gradientUnits="userSpaceOnUse">
<stop offset="0.75" stop-color="white"/>
<stop offset="1" stop-color="#999999"/>
</linearGradient>
</defs>
</svg>
